<mxfile host="app.diagrams.net" agent="Mozilla/5.0 (Macintosh; Intel Mac OS X 10_15_7) AppleWebKit/537.36 (KHTML, like Gecko) Chrome/134.0.0.0 Safari/537.36" version="26.1.3">
  <diagram name="Page-1" id="chH0mHPYFJcvf2NzQ0rd">
    <mxGraphModel dx="1009" dy="724" grid="0" gridSize="10" guides="1" tooltips="1" connect="1" arrows="1" fold="1" page="0" pageScale="1" pageWidth="827" pageHeight="1169" math="0" shadow="0">
      <root>
        <mxCell id="0" />
        <mxCell id="1" parent="0" />
        <mxCell id="WTMGSZXHEig1LI99Lyro-1" value="" style="rounded=0;whiteSpace=wrap;html=1;movable=0;resizable=0;rotatable=0;deletable=0;editable=0;locked=1;connectable=0;" vertex="1" parent="1">
          <mxGeometry x="-31" y="38" width="1024" height="767" as="geometry" />
        </mxCell>
        <mxCell id="WTMGSZXHEig1LI99Lyro-3" value="div: login-border&lt;div&gt;login-container&lt;/div&gt;&lt;div&gt;login-form&lt;/div&gt;" style="rounded=0;whiteSpace=wrap;html=1;" vertex="1" parent="1">
          <mxGeometry x="-31" y="38" width="1024" height="102" as="geometry" />
        </mxCell>
        <mxCell id="WTMGSZXHEig1LI99Lyro-4" value="Overlay - h1" style="text;html=1;align=center;verticalAlign=middle;whiteSpace=wrap;rounded=0;" vertex="1" parent="1">
          <mxGeometry x="-17" y="49" width="60" height="30" as="geometry" />
        </mxCell>
        <mxCell id="WTMGSZXHEig1LI99Lyro-5" value="div: login-border&lt;div&gt;login-container&lt;/div&gt;&lt;div&gt;login-form&lt;/div&gt;&lt;div&gt;(botones y formulario)&lt;/div&gt;&lt;div&gt;--------------------------&lt;/div&gt;&lt;div&gt;no visibles: user-info&lt;/div&gt;&lt;div&gt;&lt;br&gt;&lt;/div&gt;" style="rounded=0;whiteSpace=wrap;html=1;" vertex="1" parent="1">
          <mxGeometry x="-31" y="140" width="1024" height="102" as="geometry" />
        </mxCell>
        <mxCell id="WTMGSZXHEig1LI99Lyro-9" value="Div: columns-container" style="rounded=0;whiteSpace=wrap;html=1;align=center;movable=1;resizable=1;rotatable=1;deletable=1;editable=1;locked=0;connectable=1;" vertex="1" parent="1">
          <mxGeometry x="-28" y="242" width="1018" height="560" as="geometry" />
        </mxCell>
        <mxCell id="WTMGSZXHEig1LI99Lyro-6" value="product-section (class: column)" style="rounded=0;whiteSpace=wrap;html=1;" vertex="1" parent="1">
          <mxGeometry x="-25" y="292" width="335" height="504" as="geometry" />
        </mxCell>
        <mxCell id="WTMGSZXHEig1LI99Lyro-7" value="Inventor-section (class: column)" style="rounded=0;whiteSpace=wrap;html=1;" vertex="1" parent="1">
          <mxGeometry x="310" y="292" width="341" height="504" as="geometry" />
        </mxCell>
        <mxCell id="WTMGSZXHEig1LI99Lyro-8" value="Entity-section (class: column)" style="rounded=0;whiteSpace=wrap;html=1;" vertex="1" parent="1">
          <mxGeometry x="651" y="292" width="336" height="504" as="geometry" />
        </mxCell>
        <mxCell id="WTMGSZXHEig1LI99Lyro-10" value="botones con el formulario" style="text;html=1;align=center;verticalAlign=middle;whiteSpace=wrap;rounded=0;" vertex="1" parent="1">
          <mxGeometry x="-21" y="150" width="60" height="30" as="geometry" />
        </mxCell>
        <mxCell id="WTMGSZXHEig1LI99Lyro-11" value="h2" style="text;html=1;align=center;verticalAlign=middle;whiteSpace=wrap;rounded=0;" vertex="1" parent="1">
          <mxGeometry x="-23" y="304" width="60" height="30" as="geometry" />
        </mxCell>
        <mxCell id="WTMGSZXHEig1LI99Lyro-12" value="div: column-container" style="text;strokeColor=none;fillColor=none;html=1;align=center;verticalAlign=middle;whiteSpace=wrap;rounded=0;fontSize=16;" vertex="1" parent="1">
          <mxGeometry x="390" y="254" width="194" height="30" as="geometry" />
        </mxCell>
        <mxCell id="WTMGSZXHEig1LI99Lyro-13" value="item-list + addbtn" style="rounded=0;whiteSpace=wrap;html=1;" vertex="1" parent="1">
          <mxGeometry x="-18.5" y="348" width="322" height="95" as="geometry" />
        </mxCell>
        <mxCell id="WTMGSZXHEig1LI99Lyro-14" value="item-list + addbtn" style="rounded=0;whiteSpace=wrap;html=1;" vertex="1" parent="1">
          <mxGeometry x="320" y="348" width="322" height="95" as="geometry" />
        </mxCell>
        <mxCell id="WTMGSZXHEig1LI99Lyro-15" value="item-list + addbtn" style="rounded=0;whiteSpace=wrap;html=1;" vertex="1" parent="1">
          <mxGeometry x="658" y="348" width="322" height="95" as="geometry" />
        </mxCell>
      </root>
    </mxGraphModel>
  </diagram>
</mxfile>
